<mxfile host="app.diagrams.net" modified="2022-12-02T08:57:17.898Z" agent="5.0 (Windows NT 10.0; Win64; x64) AppleWebKit/537.36 (KHTML, like Gecko) Chrome/107.0.0.0 Safari/537.36 Edg/107.0.1418.62" version="20.6.0" etag="QarcSu88m2Aw-RuVgvtj" type="github">
  <diagram id="1DsKtx8cy0jESFwRhWg8" name="Page-1">
    <mxGraphModel dx="657" dy="1089" grid="1" gridSize="10" guides="1" tooltips="1" connect="1" arrows="1" fold="1" page="1" pageScale="1" pageWidth="850" pageHeight="1100" math="0" shadow="0">
      <root>
        <mxCell id="0" />
        <mxCell id="1" parent="0" />
        <mxCell id="vdiHF2z8f4EFCGJeU7Su-23" style="edgeStyle=orthogonalEdgeStyle;rounded=0;orthogonalLoop=1;jettySize=auto;html=1;exitX=1;exitY=0.5;exitDx=0;exitDy=0;entryX=0;entryY=0.5;entryDx=0;entryDy=0;dashed=1;" edge="1" parent="1" source="vdiHF2z8f4EFCGJeU7Su-4" target="vdiHF2z8f4EFCGJeU7Su-17">
          <mxGeometry relative="1" as="geometry" />
        </mxCell>
        <mxCell id="vdiHF2z8f4EFCGJeU7Su-24" style="edgeStyle=orthogonalEdgeStyle;rounded=0;orthogonalLoop=1;jettySize=auto;html=1;exitX=1;exitY=0.5;exitDx=0;exitDy=0;entryX=0;entryY=0.5;entryDx=0;entryDy=0;dashed=1;" edge="1" parent="1" source="vdiHF2z8f4EFCGJeU7Su-4" target="vdiHF2z8f4EFCGJeU7Su-19">
          <mxGeometry relative="1" as="geometry" />
        </mxCell>
        <mxCell id="vdiHF2z8f4EFCGJeU7Su-25" style="edgeStyle=orthogonalEdgeStyle;rounded=0;orthogonalLoop=1;jettySize=auto;html=1;exitX=1;exitY=0.5;exitDx=0;exitDy=0;entryX=0;entryY=0.5;entryDx=0;entryDy=0;dashed=1;" edge="1" parent="1" source="vdiHF2z8f4EFCGJeU7Su-4" target="vdiHF2z8f4EFCGJeU7Su-20">
          <mxGeometry relative="1" as="geometry" />
        </mxCell>
        <mxCell id="vdiHF2z8f4EFCGJeU7Su-4" value="Realtime Database" style="rounded=0;whiteSpace=wrap;html=1;" vertex="1" parent="1">
          <mxGeometry x="160" y="220" width="100" height="60" as="geometry" />
        </mxCell>
        <mxCell id="vdiHF2z8f4EFCGJeU7Su-29" style="edgeStyle=orthogonalEdgeStyle;rounded=0;orthogonalLoop=1;jettySize=auto;html=1;entryX=1;entryY=0.5;entryDx=0;entryDy=0;" edge="1" parent="1" source="vdiHF2z8f4EFCGJeU7Su-5" target="vdiHF2z8f4EFCGJeU7Su-13">
          <mxGeometry relative="1" as="geometry">
            <Array as="points">
              <mxPoint x="480" y="330" />
              <mxPoint x="480" y="170" />
            </Array>
          </mxGeometry>
        </mxCell>
        <mxCell id="vdiHF2z8f4EFCGJeU7Su-30" style="edgeStyle=orthogonalEdgeStyle;rounded=0;orthogonalLoop=1;jettySize=auto;html=1;exitX=0;exitY=0.5;exitDx=0;exitDy=0;entryX=1;entryY=0.5;entryDx=0;entryDy=0;" edge="1" parent="1" source="vdiHF2z8f4EFCGJeU7Su-5" target="vdiHF2z8f4EFCGJeU7Su-17">
          <mxGeometry relative="1" as="geometry" />
        </mxCell>
        <mxCell id="vdiHF2z8f4EFCGJeU7Su-31" style="edgeStyle=orthogonalEdgeStyle;rounded=0;orthogonalLoop=1;jettySize=auto;html=1;exitX=0;exitY=0.5;exitDx=0;exitDy=0;entryX=1;entryY=0.5;entryDx=0;entryDy=0;" edge="1" parent="1" source="vdiHF2z8f4EFCGJeU7Su-5" target="vdiHF2z8f4EFCGJeU7Su-19">
          <mxGeometry relative="1" as="geometry" />
        </mxCell>
        <mxCell id="vdiHF2z8f4EFCGJeU7Su-32" style="edgeStyle=orthogonalEdgeStyle;rounded=0;orthogonalLoop=1;jettySize=auto;html=1;exitX=0;exitY=0.5;exitDx=0;exitDy=0;entryX=1;entryY=0.5;entryDx=0;entryDy=0;" edge="1" parent="1" source="vdiHF2z8f4EFCGJeU7Su-5" target="vdiHF2z8f4EFCGJeU7Su-20">
          <mxGeometry relative="1" as="geometry" />
        </mxCell>
        <mxCell id="vdiHF2z8f4EFCGJeU7Su-33" style="edgeStyle=orthogonalEdgeStyle;rounded=0;orthogonalLoop=1;jettySize=auto;html=1;exitX=0;exitY=0.5;exitDx=0;exitDy=0;entryX=1;entryY=0.5;entryDx=0;entryDy=0;" edge="1" parent="1" source="vdiHF2z8f4EFCGJeU7Su-5" target="vdiHF2z8f4EFCGJeU7Su-26">
          <mxGeometry relative="1" as="geometry" />
        </mxCell>
        <mxCell id="vdiHF2z8f4EFCGJeU7Su-34" style="edgeStyle=orthogonalEdgeStyle;rounded=0;orthogonalLoop=1;jettySize=auto;html=1;exitX=0;exitY=0.5;exitDx=0;exitDy=0;entryX=1;entryY=0.5;entryDx=0;entryDy=0;" edge="1" parent="1" source="vdiHF2z8f4EFCGJeU7Su-5" target="vdiHF2z8f4EFCGJeU7Su-15">
          <mxGeometry relative="1" as="geometry">
            <Array as="points">
              <mxPoint x="481" y="330" />
              <mxPoint x="481" y="480" />
            </Array>
          </mxGeometry>
        </mxCell>
        <mxCell id="vdiHF2z8f4EFCGJeU7Su-5" value="JobSharing" style="rounded=0;whiteSpace=wrap;html=1;" vertex="1" parent="1">
          <mxGeometry x="510" y="300" width="100" height="60" as="geometry" />
        </mxCell>
        <mxCell id="vdiHF2z8f4EFCGJeU7Su-14" style="edgeStyle=orthogonalEdgeStyle;rounded=0;orthogonalLoop=1;jettySize=auto;html=1;exitX=1;exitY=0.5;exitDx=0;exitDy=0;entryX=0;entryY=0.5;entryDx=0;entryDy=0;dashed=1;" edge="1" parent="1" source="vdiHF2z8f4EFCGJeU7Su-6" target="vdiHF2z8f4EFCGJeU7Su-13">
          <mxGeometry relative="1" as="geometry" />
        </mxCell>
        <mxCell id="vdiHF2z8f4EFCGJeU7Su-6" value="Authentication" style="rounded=0;whiteSpace=wrap;html=1;" vertex="1" parent="1">
          <mxGeometry x="160" y="140" width="100" height="60" as="geometry" />
        </mxCell>
        <mxCell id="vdiHF2z8f4EFCGJeU7Su-28" style="edgeStyle=orthogonalEdgeStyle;rounded=0;orthogonalLoop=1;jettySize=auto;html=1;exitX=1;exitY=0.5;exitDx=0;exitDy=0;entryX=0;entryY=0.5;entryDx=0;entryDy=0;dashed=1;" edge="1" parent="1" source="vdiHF2z8f4EFCGJeU7Su-7" target="vdiHF2z8f4EFCGJeU7Su-15">
          <mxGeometry relative="1" as="geometry" />
        </mxCell>
        <mxCell id="vdiHF2z8f4EFCGJeU7Su-7" value="Cloud Messaging" style="rounded=0;whiteSpace=wrap;html=1;" vertex="1" parent="1">
          <mxGeometry x="160" y="450" width="100" height="60" as="geometry" />
        </mxCell>
        <mxCell id="vdiHF2z8f4EFCGJeU7Su-8" value="Firebase" style="rounded=0;whiteSpace=wrap;html=1;" vertex="1" parent="1">
          <mxGeometry y="220" width="120" height="60" as="geometry" />
        </mxCell>
        <mxCell id="vdiHF2z8f4EFCGJeU7Su-9" value="" style="endArrow=none;dashed=1;html=1;dashPattern=1 3;strokeWidth=2;rounded=0;exitX=0.5;exitY=1;exitDx=0;exitDy=0;entryX=0;entryY=0.5;entryDx=0;entryDy=0;" edge="1" parent="1" source="vdiHF2z8f4EFCGJeU7Su-8" target="vdiHF2z8f4EFCGJeU7Su-7">
          <mxGeometry width="50" height="50" relative="1" as="geometry">
            <mxPoint x="310" y="470" as="sourcePoint" />
            <mxPoint x="360" y="420" as="targetPoint" />
            <Array as="points">
              <mxPoint x="60" y="480" />
            </Array>
          </mxGeometry>
        </mxCell>
        <mxCell id="vdiHF2z8f4EFCGJeU7Su-11" value="" style="endArrow=none;dashed=1;html=1;dashPattern=1 3;strokeWidth=2;rounded=0;exitX=1;exitY=0.5;exitDx=0;exitDy=0;entryX=0;entryY=0.5;entryDx=0;entryDy=0;" edge="1" parent="1" source="vdiHF2z8f4EFCGJeU7Su-8" target="vdiHF2z8f4EFCGJeU7Su-4">
          <mxGeometry width="50" height="50" relative="1" as="geometry">
            <mxPoint x="310" y="470" as="sourcePoint" />
            <mxPoint x="360" y="420" as="targetPoint" />
          </mxGeometry>
        </mxCell>
        <mxCell id="vdiHF2z8f4EFCGJeU7Su-12" value="" style="endArrow=none;dashed=1;html=1;dashPattern=1 3;strokeWidth=2;rounded=0;exitX=0.5;exitY=0;exitDx=0;exitDy=0;entryX=0;entryY=0.5;entryDx=0;entryDy=0;" edge="1" parent="1" source="vdiHF2z8f4EFCGJeU7Su-8" target="vdiHF2z8f4EFCGJeU7Su-6">
          <mxGeometry width="50" height="50" relative="1" as="geometry">
            <mxPoint x="310" y="470" as="sourcePoint" />
            <mxPoint x="360" y="420" as="targetPoint" />
            <Array as="points">
              <mxPoint x="60" y="170" />
            </Array>
          </mxGeometry>
        </mxCell>
        <mxCell id="vdiHF2z8f4EFCGJeU7Su-13" value="Sign In, Sign Up" style="rounded=0;whiteSpace=wrap;html=1;" vertex="1" parent="1">
          <mxGeometry x="360" y="140" width="95" height="60" as="geometry" />
        </mxCell>
        <mxCell id="vdiHF2z8f4EFCGJeU7Su-15" value="Notification" style="rounded=0;whiteSpace=wrap;html=1;" vertex="1" parent="1">
          <mxGeometry x="362.5" y="455" width="90" height="50" as="geometry" />
        </mxCell>
        <mxCell id="vdiHF2z8f4EFCGJeU7Su-17" value="Users" style="rounded=0;whiteSpace=wrap;html=1;" vertex="1" parent="1">
          <mxGeometry x="360" y="230" width="90" height="40" as="geometry" />
        </mxCell>
        <mxCell id="vdiHF2z8f4EFCGJeU7Su-19" value="Chats" style="rounded=0;whiteSpace=wrap;html=1;" vertex="1" parent="1">
          <mxGeometry x="360" y="280" width="90" height="40" as="geometry" />
        </mxCell>
        <mxCell id="vdiHF2z8f4EFCGJeU7Su-20" value="Post" style="rounded=0;whiteSpace=wrap;html=1;" vertex="1" parent="1">
          <mxGeometry x="360" y="330" width="90" height="40" as="geometry" />
        </mxCell>
        <mxCell id="vdiHF2z8f4EFCGJeU7Su-27" style="edgeStyle=orthogonalEdgeStyle;rounded=0;orthogonalLoop=1;jettySize=auto;html=1;entryX=0;entryY=0.5;entryDx=0;entryDy=0;dashed=1;" edge="1" parent="1" source="vdiHF2z8f4EFCGJeU7Su-21" target="vdiHF2z8f4EFCGJeU7Su-26">
          <mxGeometry relative="1" as="geometry" />
        </mxCell>
        <mxCell id="vdiHF2z8f4EFCGJeU7Su-21" value="Storage" style="rounded=0;whiteSpace=wrap;html=1;" vertex="1" parent="1">
          <mxGeometry x="160" y="380" width="100" height="50" as="geometry" />
        </mxCell>
        <mxCell id="vdiHF2z8f4EFCGJeU7Su-22" value="" style="endArrow=none;dashed=1;html=1;dashPattern=1 3;strokeWidth=2;rounded=0;exitX=0;exitY=0.5;exitDx=0;exitDy=0;" edge="1" parent="1" source="vdiHF2z8f4EFCGJeU7Su-21">
          <mxGeometry width="50" height="50" relative="1" as="geometry">
            <mxPoint x="270" y="300" as="sourcePoint" />
            <mxPoint x="60" y="290" as="targetPoint" />
            <Array as="points">
              <mxPoint x="60" y="405" />
            </Array>
          </mxGeometry>
        </mxCell>
        <mxCell id="vdiHF2z8f4EFCGJeU7Su-26" value="Images" style="rounded=0;whiteSpace=wrap;html=1;" vertex="1" parent="1">
          <mxGeometry x="360" y="380" width="90" height="50" as="geometry" />
        </mxCell>
      </root>
    </mxGraphModel>
  </diagram>
</mxfile>
